<svg width="243" height="63" viewBox="0 0 243 63" fill="none" xmlns="http://www.w3.org/2000/svg">
<path d="M49.4568 26.3322L49.4713 26.4076L49.4568 26.3322Z" fill="white"/>
<path d="M92.2312 24.994H100.542V19.9366H92.2312V13.9186H102.998V8.63285L85.887 8.62854V36.1039H92.2312V24.994Z" fill="white"/>
<path d="M112.851 14.3311H106.11V36.104H112.851V14.3311Z" fill="white"/>
<path d="M106.661 5.95954C106.314 6.26295 106.039 6.63774 105.854 7.05757C105.669 7.4774 105.58 7.9321 105.592 8.38973C105.583 8.84083 105.674 9.28842 105.859 9.70105C106.043 10.1137 106.317 10.4813 106.661 10.7782C107.466 11.4009 108.46 11.7392 109.482 11.7392C110.505 11.7392 111.498 11.4009 112.303 10.7782C112.647 10.4817 112.921 10.114 113.105 9.7012C113.289 9.28842 113.379 8.84067 113.368 8.38973C113.379 7.93146 113.288 7.47636 113.102 7.05648C112.916 6.63661 112.639 6.26217 112.29 5.95954C111.487 5.33783 110.496 5 109.476 5C108.455 5 107.464 5.33783 106.661 5.95954Z" fill="white"/>
<path d="M136.367 28.6003H129.664C129.479 29.3746 129.043 30.0564 128.431 30.5279C127.667 31.0664 126.756 31.325 125.839 31.264C124.922 31.2029 124.049 30.8255 123.355 30.19C122.64 29.4796 122.245 28.2971 122.171 26.6597H136.52C136.636 26.0902 136.697 25.5096 136.7 24.9271C136.738 22.9989 136.297 21.0937 135.422 19.3999C134.584 17.8137 133.327 16.5169 131.805 15.6661C130.123 14.7879 128.27 14.3311 126.392 14.3311C124.515 14.3311 122.662 14.7879 120.98 15.6661C119.416 16.5433 118.13 17.8834 117.281 19.5212C116.368 21.3592 115.915 23.4121 115.965 25.4859C115.921 27.5514 116.379 29.5945 117.297 31.4202C118.151 33.0548 119.436 34.3938 120.996 35.2753C122.555 36.1042 124.267 36.5622 126.012 36.6168C127.757 36.6715 129.492 36.3215 131.094 35.5916C132.453 34.9395 133.647 33.962 134.584 32.737C135.493 31.5346 136.106 30.1133 136.367 28.6003ZM123.52 20.6821C124.311 19.9445 125.341 19.554 126.397 19.5905C127.424 19.5415 128.431 19.9071 129.212 20.6128C129.617 21.0339 129.927 21.5447 130.121 22.1081C130.316 22.6716 130.388 23.2735 130.334 23.8702H122.221C122.241 22.6693 122.707 21.5246 123.52 20.6821Z" fill="white"/>
<path d="M146.555 7.59167H139.814V36.1038H146.555V7.59167Z" fill="white"/>
<path d="M165.13 18.5885C164.634 17.3212 163.773 16.2486 162.667 15.5217C161.435 14.7639 160.021 14.3931 158.594 14.4534C156.978 14.4285 155.39 14.8953 154.021 15.7973C152.637 16.7359 151.533 18.0645 150.835 19.6309C150.021 21.4875 149.622 23.5149 149.669 25.558C149.624 27.5866 150.017 29.5998 150.819 31.4462C151.514 33.0145 152.619 34.3438 154.005 35.2798C155.374 36.1806 156.962 36.6459 158.578 36.6194C160.01 36.6595 161.423 36.2694 162.65 35.4952C163.756 34.7655 164.617 33.6919 165.113 32.424V36.3265H171.444V7.59167H165.13V18.5885ZM163.898 29.3571C163.031 30.2745 161.853 30.7937 160.622 30.801C159.39 30.8083 158.207 30.303 157.33 29.3959C156.46 28.3178 156.019 26.9295 156.098 25.5192C156.018 24.1089 156.459 22.7204 157.33 21.6425C157.751 21.1779 158.261 20.8135 158.828 20.5742C159.395 20.3349 160.004 20.2262 160.614 20.2555C161.226 20.2348 161.835 20.3504 162.401 20.5947C162.967 20.839 163.477 21.2064 163.898 21.6727C164.785 22.7429 165.242 24.1329 165.171 25.5493C165.225 26.9419 164.768 28.3032 163.894 29.3528L163.898 29.3571Z" fill="white"/>
<path d="M194.614 34.0961C195.356 33.4176 195.942 32.5702 196.328 31.6179C196.715 30.6656 196.891 29.6331 196.844 28.5985C196.866 27.0594 196.376 25.5608 195.459 24.3632C194.516 23.13 193.195 22.2816 191.723 21.9634C193.023 21.6661 194.187 20.9054 195.018 19.8091C195.883 18.6265 196.327 17.1611 196.272 15.6686C196.324 14.6781 196.154 13.6886 195.774 12.781C195.394 11.8734 194.816 11.0735 194.087 10.4467C192.639 9.23174 190.587 8.62568 187.933 8.62855H176.11V36.1039H188.223C191 36.0838 193.13 35.4145 194.614 34.0961ZM182.403 13.9496H186.455C188.69 13.9496 189.806 14.9333 189.803 16.9009C189.801 18.8684 188.712 19.8536 186.536 19.8565H182.412L182.403 13.9496ZM182.403 30.7053V24.5097H186.859C187.798 24.4438 188.728 24.7392 189.477 25.3412C189.785 25.6286 190.027 25.9854 190.187 26.3851C190.347 26.7848 190.42 27.2173 190.4 27.6506C190.4 29.6612 189.233 30.6666 186.9 30.6666L182.403 30.7053Z" fill="white"/>
<path d="M218.062 32.7182C218.97 31.5203 219.582 30.1034 219.842 28.5948H213.138C212.953 29.3691 212.517 30.0508 211.905 30.5222C211.141 31.0607 210.23 31.3193 209.313 31.2582C208.396 31.1972 207.523 30.8198 206.829 30.1844C206.114 29.4741 205.719 28.2916 205.645 26.6544H220.006C220.117 26.0842 220.176 25.504 220.183 24.9219C220.219 22.9949 219.777 21.0914 218.9 19.3995C218.064 17.8128 216.809 16.5158 215.288 15.666C213.605 14.7879 211.753 14.3311 209.875 14.3311C207.997 14.3311 206.145 14.7879 204.462 15.666C202.898 16.5423 201.612 17.8825 200.763 19.5208C199.851 21.3573 199.398 23.4085 199.448 25.4806C199.403 27.5479 199.863 29.5926 200.783 31.4188C201.637 33.0537 202.921 34.3928 204.482 35.2736C206.041 36.1044 207.755 36.5631 209.501 36.617C211.247 36.6709 212.983 36.3187 214.585 35.5855C215.941 34.9304 217.132 33.9481 218.062 32.7182ZM206.994 20.6772C207.785 19.9397 208.815 19.5492 209.871 19.5858C210.896 19.5319 211.903 19.8912 212.686 20.5906C213.088 21.0131 213.394 21.5248 213.584 22.0884C213.774 22.6519 213.842 23.253 213.783 23.8477H205.695C205.713 22.6464 206.179 21.501 206.994 20.6599V20.6772Z" fill="white"/>
<path d="M227.314 35.2728C228.872 36.1041 230.586 36.5631 232.332 36.617C234.078 36.6709 235.814 36.3185 237.416 35.5848C238.772 34.9328 239.966 33.9564 240.902 32.7331C241.808 31.5341 242.419 30.1163 242.677 28.6071H235.969C235.779 29.3794 235.344 30.0598 234.736 30.5358C234.058 31.0508 233.237 31.3131 232.402 31.2812C231.9 31.3006 231.399 31.2148 230.928 31.0289C230.458 30.8429 230.027 30.5604 229.661 30.1977C228.941 29.4869 228.543 28.3038 228.473 26.6655H242.829C242.936 26.0943 242.992 25.514 242.998 24.9319C243.035 23.0041 242.594 21.0994 241.719 19.4061C240.883 17.8172 239.626 16.5191 238.103 15.6702C236.421 14.7894 234.569 14.3311 232.692 14.3311C230.814 14.3311 228.962 14.7894 227.281 15.6702C225.716 16.5461 224.43 17.8874 223.582 19.5275C222.668 21.3648 222.214 23.4172 222.262 25.491C222.218 27.5596 222.678 29.6056 223.598 31.4329C224.458 33.065 225.749 34.3989 227.314 35.2728ZM229.817 20.6846C230.617 19.9483 231.652 19.5582 232.714 19.5925C233.741 19.5428 234.747 19.9087 235.526 20.6153C235.922 21.0409 236.225 21.554 236.411 22.1175C236.597 22.681 236.662 23.2811 236.602 23.8744H228.518C228.538 22.6728 229.004 21.5273 229.817 20.6846Z" fill="white"/>
<path d="M91.1298 46.4017C90.6502 46.0986 90.1044 45.944 89.5508 45.9544C88.9681 45.9395 88.3963 46.1291 87.9188 46.4956C87.4812 46.85 87.1559 47.3458 86.9886 47.9133V46.0573H85.887V56.8401H86.9886V51.5314C87.1507 52.1018 87.4771 52.5992 87.9188 52.9492C88.3958 53.3164 88.9683 53.5046 89.5508 53.4858C90.1049 53.5007 90.6517 53.3458 91.1298 53.0386C91.6036 52.7162 91.982 52.2502 92.2192 51.6969C92.4982 51.0787 92.6381 50.3963 92.6272 49.7067C92.634 49.0176 92.4944 48.3362 92.2192 47.7165C91.9766 47.1743 91.5989 46.7184 91.1298 46.4017ZM90.8646 51.6432C90.6538 51.8816 90.3994 52.0685 90.1182 52.1918C89.837 52.3151 89.5352 52.372 89.2326 52.3588C88.8233 52.3627 88.4205 52.2469 88.0657 52.0234C87.7246 51.8121 87.4424 51.5029 87.2497 51.1289C87.0486 50.6926 86.9477 50.2089 86.9559 49.7201C86.9487 49.23 87.0495 48.7452 87.2497 48.3069C87.4345 47.9161 87.7177 47.5917 88.0657 47.3722C88.4183 47.1384 88.8207 47.0104 89.2326 47.001C89.5348 46.9883 89.8361 47.045 90.1171 47.1675C90.3982 47.29 90.6528 47.4754 90.8646 47.7121C91.2632 48.2739 91.4799 48.9651 91.4807 49.6769C91.4814 50.3886 91.2661 51.0804 90.8687 51.6432H90.8646Z" fill="white"/>
<path d="M95.3007 47.5343V46.0944H94.1833V53.2113H95.3007V49.4717C95.2724 49.1582 95.3129 48.842 95.4191 48.5477C95.5253 48.2533 95.6944 47.9887 95.9133 47.7743C96.3592 47.4203 96.9076 47.2399 97.4653 47.2638H97.813V45.9548C97.2763 45.9393 96.7462 46.0813 96.2816 46.3649C95.8528 46.6446 95.5116 47.0514 95.3007 47.5343Z" fill="white"/>
<path d="M103.535 46.3838C102.988 46.0889 102.375 45.941 101.755 45.9545C101.135 45.9429 100.523 46.0907 99.9761 46.3838C99.4535 46.6834 99.0309 47.1316 98.7615 47.6718C98.4628 48.263 98.3158 48.9197 98.3338 49.5824C98.3123 50.2454 98.4595 50.903 98.7615 51.493C99.0317 52.0326 99.4541 52.4806 99.9761 52.781C100.522 53.0764 101.135 53.2244 101.755 53.2103C102.3 53.2212 102.84 53.1128 103.338 52.8926C103.787 52.6963 104.18 52.3891 104.48 51.9996C104.768 51.622 104.962 51.1802 105.044 50.7116H103.813C103.739 51.1684 103.488 51.5774 103.115 51.8493C102.67 52.1626 102.132 52.316 101.589 52.2849C101.046 52.2537 100.529 52.0398 100.122 51.6776C99.8935 51.4382 99.7157 51.1552 99.5989 50.8454C99.4821 50.5356 99.4285 50.2053 99.4415 49.8744H105.031C105.066 49.6644 105.079 49.4515 105.07 49.2389C105.075 48.6766 104.936 48.1224 104.668 47.6289C104.416 47.1138 104.023 46.6817 103.535 46.3838ZM99.4543 49.3334C99.4482 49.0101 99.5068 48.6889 99.6265 48.3887C99.7463 48.0886 99.9248 47.8156 100.151 47.586C100.589 47.1989 101.155 46.9906 101.738 47.0021C102.124 46.9989 102.505 47.0871 102.85 47.2597C103.19 47.4295 103.47 47.701 103.65 48.0368C103.856 48.4328 103.947 48.8793 103.911 49.3248L99.4543 49.3334Z" fill="white"/>
<path d="M108.404 47.3237C108.745 47.1338 109.131 47.0376 109.522 47.0446C110.026 47.0248 110.523 47.176 110.931 47.4739C111.309 47.7625 111.558 48.1879 111.625 48.6587H112.851C112.738 47.9084 112.35 47.2273 111.762 46.7484C111.142 46.2282 110.357 45.9466 109.547 45.9543C108.925 45.9422 108.31 46.09 107.761 46.3836C107.236 46.6831 106.812 47.131 106.54 47.6714C106.244 48.2634 106.096 48.9193 106.112 49.5816C106.091 50.2444 106.239 50.9015 106.54 51.4918C106.812 52.0321 107.236 52.4801 107.761 52.7796C108.309 53.075 108.925 53.2229 109.547 53.2089C110.346 53.2386 111.129 52.9881 111.762 52.5006C112.351 52.0231 112.74 51.3413 112.851 50.5904H111.625C111.595 50.8267 111.518 51.0547 111.398 51.261C111.279 51.4673 111.12 51.6479 110.931 51.7923C110.523 52.0896 110.026 52.2407 109.522 52.2216C109.131 52.2231 108.747 52.1256 108.404 51.9383C108.056 51.737 107.775 51.4387 107.594 51.0797C107.393 50.6263 107.289 50.1357 107.289 49.6395C107.289 49.1434 107.393 48.6527 107.594 48.1994C107.769 47.832 108.051 47.5266 108.404 47.3237Z" fill="white"/>
<path d="M114.672 43.3627C114.467 43.3512 114.265 43.4281 114.109 43.5772C114.097 43.5884 114.085 43.6009 114.075 43.6145C113.949 43.7636 113.882 43.9617 113.888 44.1653C113.894 44.369 113.974 44.5616 114.109 44.7008C114.264 44.8516 114.466 44.9288 114.672 44.9153C114.878 44.9268 115.08 44.8499 115.236 44.7008C115.369 44.554 115.443 44.3554 115.443 44.1483C115.443 43.9412 115.369 43.7426 115.236 43.5958C115.083 43.44 114.881 43.3563 114.672 43.3627Z" fill="white"/>
<path d="M115.443 46.472H114.406V53.2113H115.443V46.472Z" fill="white"/>
<path d="M120.658 49.5513C120.29 49.4033 119.914 49.2818 119.533 49.1875C119.177 49.0922 118.896 49.0055 118.69 48.9232C118.498 48.848 118.322 48.7253 118.176 48.5637C118.106 48.4786 118.051 48.3779 118.016 48.2677C117.98 48.1574 117.965 48.04 117.97 47.9226C117.964 47.7682 117.989 47.6143 118.042 47.4724C118.095 47.3306 118.176 47.2046 118.277 47.1039C118.521 46.8863 118.825 46.7799 119.132 46.805C119.508 46.7823 119.877 46.9265 120.163 47.2079C120.418 47.4781 120.579 47.846 120.617 48.2432H121.584C121.522 47.594 121.255 46.9941 120.834 46.5581C120.345 46.1247 119.736 45.9122 119.121 45.9603C118.565 45.9262 118.017 46.1194 117.572 46.5061C117.389 46.6806 117.244 46.9016 117.147 47.1518C117.05 47.402 117.004 47.6747 117.014 47.9486C116.995 48.3317 117.096 48.7097 117.299 49.0142C117.484 49.2698 117.723 49.4666 117.992 49.586C118.359 49.7387 118.735 49.8589 119.117 49.9455C119.407 50.0161 119.693 50.1087 119.972 50.2228C120.171 50.2953 120.351 50.4233 120.497 50.5953C120.569 50.6793 120.626 50.7796 120.663 50.8898C120.701 51.0001 120.718 51.1181 120.714 51.2364C120.719 51.3892 120.694 51.5412 120.642 51.6818C120.59 51.8224 120.513 51.9483 120.414 52.0508C120.185 52.2709 119.891 52.3823 119.593 52.3627C119.19 52.3802 118.794 52.2398 118.468 51.9642C118.329 51.8378 118.214 51.6793 118.131 51.4988C118.048 51.3184 117.998 51.1198 117.985 50.9159H116.999C117.028 51.2469 117.116 51.5674 117.257 51.8579C117.397 52.1483 117.587 52.4026 117.816 52.6053C118.339 53.0312 118.969 53.2431 119.608 53.2074C120.147 53.2384 120.679 53.0481 121.108 52.6702C121.289 52.5013 121.433 52.2861 121.529 52.0418C121.626 51.7975 121.671 51.5307 121.663 51.2624C121.682 50.8658 121.578 50.4745 121.371 50.1578C121.181 49.8902 120.936 49.6817 120.658 49.5513Z" fill="white"/>
<path d="M123.429 43.5783C123.296 43.7273 123.221 43.929 123.221 44.1392C123.221 44.3494 123.296 44.5511 123.429 44.7001C123.592 44.8406 123.792 44.9168 123.999 44.9168C124.205 44.9168 124.405 44.8406 124.568 44.7001C124.702 44.5511 124.776 44.3494 124.776 44.1392C124.776 43.929 124.702 43.7273 124.568 43.5783C124.405 43.4378 124.205 43.3616 123.999 43.3616C123.792 43.3616 123.592 43.4378 123.429 43.5783Z" fill="white"/>
<path d="M124.258 46.472H123.221V53.2113H124.258V46.472Z" fill="white"/>
<path d="M130.896 46.3848C130.364 46.1013 129.777 45.9536 129.181 45.9536C128.586 45.9536 127.998 46.1013 127.467 46.3848C126.948 46.6773 126.523 47.1251 126.245 47.6718C125.961 48.2638 125.813 48.9177 125.813 49.5809C125.813 50.2441 125.961 50.898 126.245 51.4899C126.521 52.0378 126.947 52.4861 127.467 52.7769C127.998 53.0624 128.585 53.2113 129.181 53.2113C129.777 53.2113 130.365 53.0624 130.896 52.7769C131.418 52.4887 131.844 52.0398 132.117 51.4899C132.419 50.9047 132.569 50.2464 132.553 49.5809C132.565 48.9158 132.415 48.2586 132.117 47.6718C131.841 47.1242 131.416 46.6761 130.896 46.3848ZM131.091 50.9794C130.905 51.3431 130.622 51.6414 130.277 51.8374C129.936 52.0178 129.56 52.1117 129.179 52.1117C128.798 52.1117 128.422 52.0178 128.082 51.8374C127.739 51.6378 127.457 51.3404 127.267 50.9794C127.052 50.5398 126.945 50.0498 126.958 49.5551C126.946 49.0564 127.052 48.5625 127.267 48.118C127.455 47.7553 127.738 47.4574 128.082 47.2599C128.422 47.0796 128.798 46.9857 129.179 46.9857C129.56 46.9857 129.936 47.0796 130.277 47.2599C130.623 47.4541 130.907 47.7529 131.091 48.118C131.306 48.5625 131.412 49.0564 131.401 49.5551C131.413 50.0498 131.307 50.5398 131.091 50.9794Z" fill="white"/>
<path d="M137.685 45.955C137.142 45.9455 136.61 46.108 136.157 46.4213C135.708 46.7398 135.381 47.2133 135.231 47.7593V46.0814H134.11V53.1895H135.235V49.4415C135.19 48.777 135.391 48.1198 135.796 47.6067C135.985 47.398 136.214 47.234 136.468 47.1258C136.722 47.0176 136.995 46.9676 137.27 46.9792C137.53 46.9641 137.79 47.0072 138.034 47.1056C138.277 47.204 138.498 47.3555 138.681 47.5501C139.054 48.001 139.242 48.5885 139.204 49.1844V53.2113H140.325V49.0798C140.378 48.2426 140.118 47.4169 139.599 46.7787C139.353 46.5075 139.056 46.2939 138.726 46.152C138.396 46.01 138.041 45.9429 137.685 45.955Z" fill="white"/>
<path d="M146.545 45.8933C146.523 45.683 146.542 45.47 146.601 45.268C146.659 45.066 146.756 44.8792 146.885 44.7195C147.242 44.4606 147.674 44.349 148.102 44.4053V43.3668C146.32 43.2882 145.429 44.1013 145.429 45.8061V46.0941H144.48V47.1283H145.442V53.2112H146.545V47.1283H148.11V46.0941H146.541L146.545 45.8933Z" fill="white"/>
<path d="M154.237 46.3848C153.705 46.1013 153.119 45.9536 152.523 45.9536C151.928 45.9536 151.342 46.1013 150.81 46.3848C150.295 46.6806 149.871 47.1276 149.591 47.6718C149.288 48.2562 149.135 48.9146 149.148 49.5809C149.133 50.2474 149.286 50.9063 149.591 51.4899C149.87 52.0353 150.294 52.4827 150.81 52.7769C151.341 53.0624 151.928 53.2113 152.523 53.2113C153.119 53.2113 153.706 53.0624 154.237 52.7769C154.757 52.4878 155.182 52.0391 155.456 51.4899C155.755 50.9043 155.904 50.2461 155.887 49.5809C155.901 48.916 155.753 48.2584 155.456 47.6718C155.181 47.123 154.756 46.6744 154.237 46.3848ZM154.428 50.9794C154.24 51.342 153.958 51.6399 153.615 51.8374C153.276 52.0207 152.902 52.1163 152.521 52.1163C152.141 52.1163 151.766 52.0207 151.428 51.8374C151.083 51.6426 150.8 51.344 150.615 50.9794C150.396 50.5412 150.29 50.0502 150.306 49.5551C150.29 49.0559 150.396 48.5608 150.615 48.118C150.799 47.7529 151.082 47.4542 151.428 47.26C151.766 47.0767 152.141 46.9811 152.521 46.9811C152.902 46.9811 153.276 47.0767 153.615 47.26C153.96 47.455 154.243 47.7536 154.428 48.118C154.65 48.5595 154.758 49.0553 154.74 49.5551C154.758 50.0508 154.65 50.5425 154.428 50.9794Z" fill="white"/>
<path d="M158.404 47.5343V46.0943H157.443V53.2113H158.404V49.4717C158.381 49.1579 158.416 48.8419 158.508 48.5477C158.599 48.2535 158.744 47.989 158.931 47.7743C159.313 47.4189 159.783 47.2384 160.26 47.2637H160.554V45.9546C160.096 45.94 159.644 46.0819 159.247 46.3648C158.877 46.6418 158.583 47.0492 158.404 47.5343Z" fill="white"/>
<path d="M169.489 46.3841C168.99 46.0866 168.427 45.9385 167.858 45.9548C167.287 45.9431 166.722 46.0909 166.218 46.3841C165.737 46.6837 165.347 47.1317 165.098 47.672C164.825 48.264 164.69 48.9201 164.705 49.5824C164.686 50.2453 164.821 50.9025 165.098 51.4928C165.347 52.0332 165.737 52.4812 166.218 52.7807C166.721 53.0784 167.286 53.2264 167.858 53.21C168.356 53.223 168.85 53.1145 169.305 52.8923C169.718 52.6976 170.079 52.3919 170.354 52.0037C170.617 51.6236 170.795 51.183 170.877 50.7158H169.741C169.708 50.9421 169.634 51.1591 169.524 51.3543C169.414 51.5495 169.27 51.7191 169.1 51.8534C168.727 52.1507 168.272 52.3019 167.811 52.2827C167.543 52.2865 167.277 52.2323 167.029 52.1232C166.781 52.0142 166.555 51.8524 166.364 51.6474C166.153 51.4085 165.989 51.1257 165.881 50.8159C165.773 50.506 165.723 50.1756 165.735 49.8443H170.877C170.913 49.6218 170.929 49.3961 170.925 49.1703C170.928 48.6077 170.799 48.0535 170.551 47.5604C170.304 47.0686 169.936 46.6614 169.489 46.3841ZM165.735 49.269C165.732 48.95 165.788 48.6336 165.9 48.3387C166.011 48.0438 166.176 47.7762 166.383 47.5518C166.787 47.155 167.315 46.9429 167.858 46.9594C168.21 46.9563 168.558 47.0446 168.872 47.217C169.187 47.3854 169.445 47.6571 169.611 47.994C169.787 48.3945 169.858 48.8402 169.816 49.2819L165.735 49.269Z" fill="white"/>
<path d="M175.335 52.0295L173.209 46.472H171.962L174.642 53.2113H176.015L178.703 46.472H177.46L175.335 52.0295Z" fill="white"/>
<path d="M184.418 46.3838C183.875 46.0889 183.266 45.941 182.649 45.9545C182.03 45.9426 181.418 46.0904 180.871 46.3838C180.351 46.6846 179.93 47.1325 179.661 47.6718C179.372 48.2667 179.222 48.9202 179.222 49.5824C179.222 50.2446 179.372 50.8981 179.661 51.493C179.93 52.0326 180.351 52.4806 180.871 52.781C181.417 53.0764 182.03 53.2243 182.649 53.2103C183.19 53.2217 183.727 53.1133 184.222 52.8926C184.67 52.6963 185.062 52.3891 185.361 51.9996C185.648 51.622 185.841 51.1802 185.923 50.7116H184.691C184.657 50.938 184.579 51.1553 184.46 51.3507C184.341 51.5461 184.185 51.7156 184.001 51.8493C183.556 52.1626 183.02 52.316 182.479 52.2849C181.937 52.2537 181.422 52.0398 181.016 51.6776C180.789 51.4382 180.612 51.1552 180.495 50.8454C180.379 50.5356 180.326 50.2054 180.338 49.8744H185.911C185.949 49.6417 185.966 49.406 185.962 49.1702C185.967 48.6065 185.829 48.0509 185.561 47.5559C185.297 47.0648 184.901 46.6586 184.418 46.3838ZM180.351 49.3334C180.345 49.0101 180.403 48.6889 180.523 48.3887C180.642 48.0886 180.82 47.8156 181.046 47.586C181.486 47.1907 182.06 46.9789 182.649 46.9935C183.032 46.9898 183.411 47.0781 183.753 47.2511C184.093 47.4198 184.372 47.6916 184.551 48.0282C184.756 48.4242 184.846 48.8708 184.811 49.3162L180.351 49.3334Z" fill="white"/>
<path d="M188.136 47.5343V46.0943H187V53.2113H188.115V49.4717C188.087 49.1582 188.128 48.8419 188.234 48.5476C188.341 48.2532 188.51 47.9886 188.729 47.7743C189.176 47.4196 189.726 47.2391 190.285 47.2637H190.629V45.9546C190.093 45.94 189.563 46.0819 189.099 46.3648C188.675 46.6464 188.34 47.0533 188.136 47.5343Z" fill="white"/>
<path d="M194.611 51.7323L192.41 46.472H191.148L193.997 53.0453L192.585 56.3217H193.86L197.888 46.472H196.655L194.611 51.7323Z" fill="white"/>
<path d="M202.096 45.8061V46.0941H200.999V47.1283H202.087V53.2112H203.332V47.1283H205.134V46.0941H203.356V45.8933C203.331 45.683 203.353 45.47 203.42 45.268C203.488 45.066 203.599 44.8792 203.748 44.7195C204.159 44.4606 204.656 44.349 205.148 44.4053V43.3668C203.113 43.2882 202.096 44.1013 202.096 45.8061Z" fill="white"/>
<path d="M211.303 47.8688C211.137 47.3189 210.809 46.8391 210.367 46.4994C209.892 46.1412 209.321 45.9504 208.737 45.9543C208.185 45.9425 207.64 46.091 207.161 46.3835C206.691 46.6958 206.314 47.1423 206.074 47.6714C205.799 48.2662 205.66 48.9202 205.667 49.5817C205.656 50.2436 205.796 50.8986 206.074 51.492C206.308 52.023 206.686 52.4693 207.16 52.7748C207.633 53.0803 208.182 53.2314 208.737 53.2091C209.318 53.23 209.89 53.0523 210.367 52.7025C210.81 52.3642 211.139 51.884 211.303 51.3331V53.1146H212.407V46.0873H211.303V47.8688ZM211.043 50.9167C210.859 51.2938 210.576 51.6069 210.228 51.8182C209.86 52.0535 209.437 52.1741 209.006 52.1659C208.704 52.18 208.402 52.126 208.122 52.0075C207.841 51.8891 207.587 51.709 207.377 51.4791C206.981 50.9397 206.766 50.2768 206.766 49.5946C206.766 48.9123 206.981 48.2494 207.377 47.71C207.593 47.481 207.853 47.3035 208.14 47.1894C208.427 47.0754 208.733 47.0275 209.039 47.0489C209.449 47.0405 209.854 47.1472 210.212 47.358C210.554 47.5586 210.836 47.856 211.026 48.2166C211.225 48.6374 211.325 49.1029 211.315 49.5731C211.329 50.0376 211.235 50.4987 211.043 50.9167Z" fill="white"/>
<path d="M215.605 47.5342V46.0942H214.481V53.2113H215.593V49.4716C215.567 49.1583 215.608 48.8428 215.715 48.5488C215.821 48.2548 215.989 47.9899 216.207 47.7742C216.655 47.4195 217.206 47.2391 217.767 47.2637H218.111V45.9546C217.573 45.9404 217.042 46.0824 216.576 46.3648C216.15 46.6451 215.812 47.052 215.605 47.5342Z" fill="white"/>
<path d="M227.414 45.9573C226.883 45.9494 226.361 46.1134 225.92 46.4275C225.472 46.7502 225.138 47.2223 224.973 47.7686C224.826 47.2233 224.51 46.7463 224.076 46.4145C223.636 46.118 223.125 45.9605 222.604 45.9605C222.082 45.9605 221.572 46.118 221.132 46.4145C220.702 46.7245 220.392 47.1883 220.259 47.7207V46.1097H219.148V53.2113H220.272V49.4798C220.226 48.8281 220.416 48.1824 220.803 47.6728C220.981 47.4605 221.202 47.2923 221.449 47.1802C221.695 47.0681 221.963 47.0148 222.231 47.0241C222.477 47.0116 222.722 47.0549 222.951 47.151C223.18 47.2471 223.386 47.3939 223.557 47.5814C223.908 48.0312 224.083 48.606 224.047 49.1881V53.2113H225.162V49.4798C225.117 48.8281 225.307 48.1824 225.694 47.6728C225.871 47.4627 226.09 47.2958 226.334 47.1838C226.579 47.0718 226.843 47.0173 227.11 47.0241C227.357 47.0092 227.604 47.0513 227.835 47.1475C228.065 47.2438 228.273 47.3918 228.444 47.5814C228.78 48.0303 228.949 48.5944 228.917 49.1663V53.1895H230.029V49.0618C230.085 48.2293 229.836 47.4059 229.333 46.7628C229.087 46.4902 228.788 46.277 228.457 46.138C228.126 45.9989 227.77 45.9373 227.414 45.9573Z" fill="white"/>
<path d="M237.814 49.1615C237.822 48.598 237.696 48.0418 237.449 47.5473C237.202 47.0576 236.833 46.6543 236.385 46.3838C235.883 46.0889 235.32 45.941 234.75 45.9545C234.181 45.9429 233.619 46.0907 233.116 46.3838C232.636 46.6845 232.247 47.1323 231.997 47.6718C231.731 48.2666 231.592 48.9201 231.592 49.5823C231.592 50.2445 231.731 50.8979 231.997 51.4928C232.247 52.0327 232.636 52.4806 233.116 52.7807C233.617 53.078 234.181 53.2261 234.75 53.2101C235.25 53.221 235.746 53.1125 236.204 52.8924C236.617 52.6961 236.977 52.3889 237.253 51.9994C237.518 51.6218 237.695 51.18 237.771 50.7114H236.636C236.605 50.944 236.531 51.1673 236.419 51.3679C236.307 51.5686 236.159 51.7425 235.984 51.8792C235.574 52.1968 235.077 52.3501 234.576 52.3134C234.075 52.2766 233.601 52.052 233.234 51.6774C233.026 51.4374 232.863 51.1543 232.756 50.8447C232.648 50.535 232.599 50.2051 232.61 49.8742H237.744C237.789 49.6399 237.813 49.4011 237.814 49.1615ZM232.618 49.3333C232.612 49.0096 232.666 48.688 232.777 48.3877C232.887 48.0875 233.052 47.8148 233.262 47.5859C233.665 47.189 234.192 46.9769 234.735 46.9934C235.088 46.9898 235.437 47.0781 235.752 47.251C236.063 47.4234 236.319 47.6942 236.487 48.0281C236.667 48.4269 236.741 48.8735 236.699 49.3161L232.618 49.3333Z" fill="white"/>
<path d="M241.471 46.3775C241.043 46.6526 240.702 47.0549 240.491 47.5339V46.0939H239.37V53.2113H240.491V49.4715C240.465 49.1581 240.506 48.8426 240.612 48.5486C240.718 48.2545 240.886 47.9897 241.103 47.774C241.549 47.4193 242.099 47.2389 242.657 47.2634H243V45.9542C242.463 45.9427 241.933 46.0893 241.471 46.3775Z" fill="white"/>
<g clip-path="url(#clip0_6401_6084)">
<path d="M53.5085 14.4022C53.3971 14.4022 53.2975 14.3844 53.2099 14.3484C53.1216 14.3123 53.0511 14.2592 52.9978 14.1888C52.9456 14.1185 52.9184 14.0334 52.9154 13.9341H53.3094C53.3153 13.9903 53.3349 14.0334 53.3681 14.0636C53.4012 14.0925 53.4445 14.1067 53.4978 14.1067C53.5511 14.1067 53.5962 14.0943 53.6276 14.0701C53.6596 14.0441 53.675 14.0086 53.675 13.9643C53.675 13.927 53.6619 13.8957 53.6358 13.8715C53.6116 13.8473 53.5802 13.8266 53.5428 13.8112C53.5067 13.7953 53.4546 13.7775 53.387 13.7574C53.2887 13.7273 53.2087 13.6972 53.1465 13.6664C53.0843 13.6363 53.0309 13.5914 52.9865 13.5323C52.9415 13.4732 52.9196 13.3964 52.9196 13.3012C52.9196 13.16 52.9711 13.0501 53.0736 12.9709C53.1761 12.8905 53.3094 12.8497 53.4741 12.8497C53.6388 12.8497 53.7769 12.8899 53.8794 12.9709C53.9819 13.0501 54.037 13.1612 54.0441 13.3036H53.6436C53.6406 13.2545 53.6228 13.2167 53.5896 13.1889C53.5565 13.16 53.5138 13.1458 53.4617 13.1458C53.4166 13.1458 53.3811 13.1582 53.3532 13.1824C53.326 13.2055 53.3124 13.2392 53.3124 13.2841C53.3124 13.3331 53.3355 13.371 53.3817 13.3987C53.4279 13.4259 53.5002 13.4555 53.5979 13.4874C53.6963 13.5205 53.7757 13.5524 53.8361 13.5825C53.8983 13.6127 53.9516 13.657 53.9961 13.7143C54.0405 13.7716 54.063 13.8461 54.063 13.9365C54.063 14.0269 54.0405 14.1014 53.9961 14.1717C53.9528 14.242 53.8894 14.2982 53.8053 14.3401C53.7218 14.3821 53.6228 14.4028 53.5085 14.4028V14.4022Z" fill="white"/>
<path d="M52.1044 14.3868L51.788 13.8141H51.6992V14.3868H51.3289V12.8704H51.9504C52.07 12.8704 52.1719 12.891 52.2555 12.933C52.3408 12.975 52.4042 13.0323 52.4463 13.1056C52.4883 13.1777 52.5091 13.258 52.5091 13.3473C52.5091 13.4483 52.48 13.5381 52.4226 13.6173C52.3663 13.6965 52.2827 13.7527 52.1714 13.7858L52.5221 14.3862H52.1044V14.3868ZM51.6997 13.5529H51.929C51.9972 13.5529 52.0475 13.5364 52.0807 13.5033C52.1157 13.4702 52.1328 13.4235 52.1328 13.3626C52.1328 13.3018 52.1157 13.2598 52.0807 13.2267C52.0475 13.1936 51.9972 13.1771 51.929 13.1771H51.6997V13.5529Z" fill="white"/>
<path d="M50.4626 14.1191H49.895L49.8037 14.3868H49.4163L49.9661 12.8704H50.395L50.9448 14.3868H50.5526L50.462 14.1191H50.4626ZM50.3672 13.8342L50.1788 13.2793L49.9927 13.8342H50.3672Z" fill="white"/>
<path d="M48.4986 13.1664V13.4731H48.9945V13.758H48.4986V14.0907H49.0597V14.3868H48.1283V12.8704H49.0597V13.1664H48.4986Z" fill="white"/>
<path d="M47.7621 12.8706L47.236 13.8859V14.387H46.8657V13.8859L46.3396 12.8706H46.7597L47.0541 13.5059L47.3462 12.8706H47.7621Z" fill="white"/>
<path d="M36.5762 34.8994L36.7563 34.6908L36.9725 34.5649L37.1959 34.5112L47.3757 35.371H48.0754L48.4143 35.3314L48.7461 35.2664L49.0743 35.1766L49.3955 35.0578L49.7018 34.9177L50.001 34.7523L50.2824 34.562L50.549 34.3534L50.7978 34.1229L51.0289 33.8711L51.2381 33.6052L55.8972 26.0516L56.0596 25.7603L56.1964 25.4654L56.312 25.1634L56.402 24.8502L56.4672 24.5335L56.5105 24.2279L56.5282 23.8899V23.5661L56.4992 23.2422L56.4417 22.9219L56.3623 22.6093L56.2616 22.3002L56.1354 22.0018L55.9873 21.714L55.8179 21.4369L55.6265 21.1745L55.4173 20.9263L55.1898 20.6964L54.9446 20.4807L54.6851 20.2863L54.4113 20.1137L54.1228 19.9589L53.8272 19.8295L53.5208 19.7213L53.2074 19.635L52.8899 19.5736L52.5652 19.5375L43.6763 19.4944H43.3155L42.9802 19.534L42.6449 19.599L42.3202 19.6924L41.9991 19.8111L41.6928 19.9512L41.3935 20.1202L41.1121 20.3075L40.8491 20.5197L40.6002 20.7496L40.3698 21.0013L40.1606 21.2673L39.9728 21.5515L35.2994 30.7669L35.2022 30.9217L35.0654 31.0653L34.8527 31.1912L34.6293 31.2449L24.4459 30.3851H23.7462L23.4073 30.4212L23.072 30.4897L22.7437 30.5795L22.4262 30.6948L22.1163 30.8384L21.8207 31.0038L21.5392 31.1906L21.2691 31.4027L21.0202 31.6332L20.7898 31.8814L20.5806 32.1473L15.9214 39.7009L15.7591 39.9923L15.6222 40.2836L15.5103 40.5891L15.4202 40.8982L15.3515 41.215L15.3082 41.5388V42.1859L15.3408 42.5097L15.3947 42.8265L15.4741 43.1432L15.5784 43.4488L15.7046 43.7472L15.8521 44.0385L16.0216 44.3122L16.2129 44.5781L16.4221 44.8263L16.649 45.0568L16.8943 45.2689L17.1538 45.4633L17.4281 45.6394L17.7131 45.7907L18.0123 45.9237L18.3186 46.0318L18.629 46.1181L18.9501 46.179L19.2748 46.215L28.1601 46.2582H28.5209L28.8598 46.2186L29.1916 46.1542L29.5198 46.0608L29.8374 45.942L30.1479 45.7984L30.4435 45.6329L30.7249 45.4421L30.9915 45.2335L31.2404 44.9994L31.4708 44.7512L31.68 44.4812L31.8637 44.2005L36.5228 35.0141L36.5768 34.8988L36.5762 34.8994ZM38.8122 30.472L42.4612 23.2458L42.6774 22.9148L42.8072 22.789L42.9512 22.6844L43.1064 22.5981L43.2758 22.5372L43.4524 22.4976V22.523L43.6758 22.4834L52.186 22.5124L52.4058 22.5378L52.532 22.5632L52.6979 22.617L52.8496 22.6891L52.9935 22.786L53.1233 22.8977L53.2388 23.0271L53.3324 23.1672L53.4083 23.322L53.4657 23.4839L53.4983 23.6529V23.9945L53.4622 24.1635L53.4047 24.329L53.3182 24.5086L48.8682 31.7348L48.7562 31.8968L48.6335 32.0297L48.4967 32.145L48.3415 32.2383L48.1791 32.3104L48.0061 32.3607L47.8296 32.3861H47.5985L39.4668 31.6882H39.3477L39.2216 31.6486L39.0989 31.5877L38.9869 31.5085L38.8933 31.4116L38.8139 31.2999L38.7565 31.1811L38.7168 31.0517V30.6883L38.8104 30.4726L38.8122 30.472ZM33.0136 35.2918L29.3534 42.5322L29.2272 42.7337L29.018 42.96L28.874 43.0682L28.7153 43.1509L28.5458 43.2159L28.3728 43.2555V43.2266L28.1459 43.2697L19.625 43.2408L19.4016 43.2118L19.2825 43.1899L19.1202 43.1362L18.965 43.0605L18.821 42.9671L18.6948 42.8554L18.5793 42.726L18.4821 42.5824L18.392 42.453L18.3381 42.2875L18.3198 42.0931V41.7515L18.3523 41.5861L18.4098 41.4242L18.4963 41.241L22.9393 34.0006L23.0797 33.8209L23.181 33.7092L23.3214 33.5975L23.4731 33.5006L23.639 33.4285L23.812 33.3818L23.9885 33.3564H24.1941L32.3003 34.0543L32.5237 34.1152L32.6931 34.1909L32.8015 34.27L32.8987 34.3634L32.9745 34.4751L33.0356 34.5939L33.0753 34.7269V35.0832L33.0142 35.2918H33.0136Z" fill="white"/>
<path d="M25.8192 27.9935L33.2767 28.159L37.4198 21.9758L34.131 16.0952L35.7105 10.9551L35.7431 10.8038L35.7502 10.6525L35.7325 10.4977L35.6892 10.3499L35.6205 10.2099L35.534 10.0875L35.4256 9.97584L35.2994 9.88602L35.1625 9.81747L35.0144 9.77078L34.8627 9.75305L34.7075 9.7566L34.5558 9.7891L34.4118 9.84288L34.2785 9.91852L34.1594 10.019L34.0587 10.1342L33.9793 10.2672L33.9254 10.4072L32.4075 15.3459L23.1691 20.3601L18.8494 18.6842L18.6977 18.641L18.546 18.6233L18.3908 18.6304L18.2427 18.6629L18.0987 18.7167L17.9654 18.7959L17.8463 18.8963L17.7492 19.0151L17.6698 19.1445L17.6159 19.2881L17.5833 19.4394L17.5762 19.5942L17.5975 19.7455L17.6408 19.8933L17.7095 20.0298L17.796 20.1556L17.908 20.2638L18.0342 20.3536L18.171 20.4222L22.531 22.1129L25.8198 27.9935H25.8192Z" fill="white"/>
<path d="M44.7037 49.7791L45.0716 49.5486L45.4502 49.3435L45.8395 49.1603L46.24 48.9984L46.6512 48.8619L47.0659 48.7467L47.4877 48.6568L47.9131 48.5924L48.3421 48.5493L48.7746 48.5351L49.2071 48.5457L49.636 48.5782L49.9352 45.8013L49.4375 45.7582L48.9399 45.744L48.4422 45.7511L47.9445 45.7801L47.4504 45.8338L46.9563 45.913L46.4693 46.017L45.9864 46.1429L45.5107 46.2942L45.0456 46.4668L44.5876 46.6612L44.1367 46.8769L43.7006 47.1144L43.2753 47.3733L42.8641 47.654L42.4636 47.9524L42.0814 48.2692L41.7135 48.6072L41.3639 48.96L41.0286 49.3305L40.7152 49.7152L40.4195 50.1147L40.1452 50.5319L39.8893 50.9562L39.6547 51.3953L42.1608 52.647L42.3629 52.2693L42.5898 51.9024L42.835 51.5496L43.1017 51.2115L43.3902 50.8877L43.6929 50.5822L44.0141 50.2944L44.353 50.0284L44.7025 49.7802L44.7037 49.7791Z" fill="white"/>
<path d="M41.3035 47.0961L41.7111 46.7687L42.1365 46.4555L42.569 46.1642L43.0199 45.8941L43.4779 45.6424L43.9501 45.416L44.43 45.2074L44.9206 45.0207L45.4182 44.8552L45.923 44.7152L46.4349 44.5964L46.9504 44.4995L47.4694 44.4274L47.9925 44.3771L48.5157 44.3482H49.0424L49.5691 44.3695L50.0922 44.4126L50.3914 41.6357L49.8073 41.5855L49.2231 41.5565H48.6389L48.0512 41.5778L47.4706 41.6209L46.8864 41.6859L46.3093 41.7793L45.7358 41.891L45.1658 42.0275L44.6036 42.1894L44.0484 42.3691L43.5004 42.5741L42.9595 42.8011L42.4292 43.0493L41.9096 43.3187L41.4013 43.6101L40.9072 43.9192L40.4237 44.2501L39.9551 44.61L39.5006 44.9699L39.0604 45.3546L38.6386 45.7576L38.2239 46.1713L37.8346 46.6062L37.4738 47.0595L37.113 47.5234L36.7812 48.0056L36.4678 48.4985L36.1721 49.002L35.9014 49.5196L38.404 50.7677L38.6492 50.3074L38.9159 49.8577L39.2008 49.4186L39.5071 48.9943L39.8318 48.5806L40.1926 48.1847L40.5534 47.8035L40.9143 47.4436L41.3035 47.095V47.0961Z" fill="white"/>
<path d="M37.5277 44.8771L37.975 44.4457L38.433 44.032L38.9129 43.6325L39.4035 43.2549L39.9118 42.8991L40.4308 42.5576L40.9646 42.2408L41.5091 41.9459L42.0678 41.6688L42.6336 41.4135L43.2107 41.183L43.7949 40.9744L44.3862 40.7912L44.9846 40.6293L45.5906 40.4892L46.2039 40.374L46.8171 40.2842L47.4338 40.2198L48.0541 40.1766L48.6745 40.1589L49.2983 40.1624L49.9186 40.1949L50.5354 40.2487L50.8346 37.4718L50.171 37.4109L49.5075 37.3749L48.8404 37.3643L48.1732 37.3749L47.5097 37.4109L46.8461 37.4683L46.1825 37.551L45.5261 37.6591L44.8732 37.7886L44.2238 37.9398L43.5822 38.116L42.9441 38.3139L42.3167 38.5367L41.6963 38.7778L41.0867 39.0438L40.4847 39.3315L39.8934 39.6371L39.3164 39.968L38.7464 40.3167L38.1948 40.6837L37.6539 41.0755L37.1272 41.482L36.6153 41.9063L36.1212 42.3525L35.6377 42.8129L35.1762 43.2909L34.7324 43.7838L34.3035 44.2944L33.8959 44.8198L33.5066 45.3593L33.1351 45.9095L32.7856 46.478L32.4538 47.0536L32.1475 47.6433H32.1439L34.6501 48.895L34.9386 48.3448L35.2485 47.8088L35.5803 47.2834L35.9298 46.7729L36.3013 46.2765L36.6905 45.7942L37.1017 45.3303L37.5271 44.8771H37.5277Z" fill="white"/>
<path d="M49.4856 49.9665L49.0999 49.9375L48.7142 49.934L48.3249 49.9517L47.9392 49.9984L47.5606 50.0669L47.1821 50.1603L46.8141 50.2755L46.4533 50.4156L46.1002 50.5811L45.7613 50.7643L45.4366 50.9729L45.1191 51.1992L44.8234 51.4439L44.542 51.7098L44.2754 51.9905L44.0301 52.2889L43.8032 52.6057L43.5976 52.9331L43.4139 53.2711L48.8374 55.983L49.4868 49.9653L49.4856 49.9665Z" fill="white"/>
<path d="M50.2013 6.48099C50.2013 4.94805 50.4963 3.74072 51.0859 2.85843C51.6842 1.97613 52.6452 1.53528 53.9676 1.53528C55.29 1.53528 56.2463 1.97613 56.8358 2.85843C57.4342 3.74072 57.734 4.94805 57.734 6.48099C57.734 8.01392 57.4348 9.24843 56.8358 10.1307C56.2463 11.013 55.29 11.4539 53.9676 11.4539C52.6452 11.4539 51.6848 11.013 51.0859 10.1307C50.4963 9.24843 50.2013 8.03165 50.2013 6.48099ZM55.482 6.48099C55.482 5.58096 55.3836 4.89013 55.1869 4.4091C54.9902 3.91919 54.5838 3.67395 53.967 3.67395C53.3503 3.67395 52.9438 3.91919 52.7471 4.4091C52.5504 4.89013 52.4521 5.58096 52.4521 6.48099C52.4521 7.08731 52.4876 7.5908 52.5593 7.99147C52.631 8.38386 52.7738 8.70416 52.9883 8.95413C53.2116 9.19465 53.5375 9.31521 53.9664 9.31521C54.3954 9.31521 54.7171 9.19465 54.9316 8.95413C55.1549 8.70475 55.3025 8.38386 55.3736 7.99147C55.4453 7.59021 55.4808 7.08671 55.4808 6.48099H55.482Z" fill="white"/>
<path d="M44.9211 3.86126V1.7356H48.6336V11.494H46.2477V3.86126H44.9211Z" fill="white"/>
<path d="M43.6639 1.77283L39.7234 1.79706L19.9017 1.77283L19.1481 1.80888L18.2789 1.99207L17.4637 2.35196L16.7426 2.84482L16.1188 3.46355L15.5452 4.2838L0.72102 29.7953H0.695543L0.219789 30.8744L0.0248659 31.7343L-0.000610352 32.6083L0.13625 33.4788L0.273111 33.9031L0.720427 34.8309H0.738201L15.4795 60.3678L15.8652 60.9972L16.4565 61.6555L17.1775 62.1844L17.9566 62.5946L18.8038 62.8244L19.8241 62.9143V62.8965L49.3937 62.9361L50.1473 62.8894L51.0094 62.7057L51.7737 62.3895L52.5451 61.8754L53.1689 61.2602L53.7531 60.4222L68.5448 34.8988H68.5738L69.0531 33.8197L69.2445 32.9599L69.2735 32.0823L69.1509 31.284L68.9992 30.7911L68.5667 29.8704L57.6652 11.0036C57.0046 11.8977 56.1011 12.4738 54.9932 12.7569L65.8443 31.5576L66.0422 32.0469L66.0712 32.5108L65.8549 33.1402L50.9152 58.9224L50.5544 59.3792L49.9163 59.6953L19.6582 59.7172L19.3987 59.6989L18.7493 59.404L18.3133 58.9111L3.41854 33.1011L3.24554 32.7017L3.19873 32.155L3.41143 31.5328L18.3619 5.76532L18.7227 5.30851L19.3572 4.99176L43.6639 4.96753V2.11085" fill="white"/>
</g>
<defs>
<clipPath id="clip0_6401_6084">
<rect width="69.7777" height="62.9368" fill="white"/>
</clipPath>
</defs>
</svg>
